<svg xmlns="http://www.w3.org/2000/svg" xmlns:xlink="http://www.w3.org/1999/xlink" width="157.406" height="157.41" viewBox="0 0 157.406 157.41">
  <defs>
    <style>
      .cls-1, .cls-2, .cls-3 {
        fill-rule: evenodd;
      }

      .cls-1 {
        fill: url(#linear-gradient);
      }

      .cls-2 {
        fill: none;
        stroke: #fff;
        stroke-width: 1.693px;
      }

      .cls-3 {
        fill: #fff;
      }
    </style>
    <linearGradient id="linear-gradient" x1="239.703" y1="9071" x2="239.703" y2="9228.41" gradientUnits="userSpaceOnUse">
      <stop offset="NaN" stop-color="#f02020"/>
      <stop offset="Infinity" stop-color="#ac0f0f"/>
    </linearGradient>
  </defs>
  <path id="Tefal_HB94L830_8020009572_Pack-02_1" data-name="Tefal_HB94L830_8020009572_Pack-02 1" class="cls-1" d="M161,9096.42A25.42,25.42,0,0,1,186.421,9071H293a25.421,25.421,0,0,1,25.422,25.42V9203A25.421,25.421,0,0,1,293,9228.42H186.421A25.42,25.42,0,0,1,161,9203V9096.42Z" transform="translate(-161 -9071)"/>
  <path id="Vector" class="cls-2" d="M303.5,9213.5H193.255a17.342,17.342,0,0,1-17.339-17.34V9085.92H286.161a17.332,17.332,0,0,1,17.338,17.34V9213.5Z" transform="translate(-161 -9071)"/>
  <path id="Vector-2" data-name="Vector" class="cls-3" d="M238.847,9144.52a6.755,6.755,0,0,0,2.895-.24,6.637,6.637,0,0,0,2.515-1.45,2.71,2.71,0,0,0,.337-0.39,5.9,5.9,0,0,0,.787-5.29,19.865,19.865,0,0,0-2.665-5.61c-0.45-.72-0.947-1.6-1.493-2.5a1.358,1.358,0,0,0-.434-0.47,0.82,0.82,0,0,0-.24-0.17,1.491,1.491,0,0,0-.538-0.2,1.569,1.569,0,0,0-.571.04,1.393,1.393,0,0,0-.511.25,1.442,1.442,0,0,0-.371.44c-0.546.94-1.108,1.78-1.606,2.6a17.925,17.925,0,0,0-2.954,5.94,5.845,5.845,0,0,0,.98,5.17,5.133,5.133,0,0,0,1.99,1.44,6.531,6.531,0,0,0,1.3.35Zm-2.055-6.43a15.023,15.023,0,0,1,2.536-4.97l0.482-.74,0.418,0.69a17.045,17.045,0,0,1,2.327,4.81,3.243,3.243,0,0,1,.17,1.4,3.159,3.159,0,0,1-.443,1.33,2.924,2.924,0,0,1-1.2.87,3.718,3.718,0,0,1-1.685.21,4.558,4.558,0,0,1-.9-0.14,2.958,2.958,0,0,1-1.332-.84,3.18,3.18,0,0,1-.466-1.27A3.213,3.213,0,0,1,236.792,9138.09Z" transform="translate(-161 -9071)"/>
  <path id="Vector-3" data-name="Vector" class="cls-3" d="M259.4,9144.52a6.749,6.749,0,0,0,2.894-.24,6.649,6.649,0,0,0,2.516-1.45,2.663,2.663,0,0,0,.321-0.39,5.862,5.862,0,0,0,.787-5.29,19.475,19.475,0,0,0-2.649-5.61c-0.45-.72-0.964-1.6-1.51-2.5a1.293,1.293,0,0,0-.417-0.47l-0.241-.17a1.478,1.478,0,0,0-.538-0.2,1.566,1.566,0,0,0-.57.04,1.393,1.393,0,0,0-.511.25,1.442,1.442,0,0,0-.371.44c-0.546.94-1.124,1.78-1.606,2.6a17.588,17.588,0,0,0-2.938,5.94,5.849,5.849,0,0,0,.979,5.17,5.144,5.144,0,0,0,1.991,1.44,6.41,6.41,0,0,0,1.284.35Zm-2.055-6.43a15.294,15.294,0,0,1,2.52-4.97c0.177-.24.337-0.49,0.5-0.74l0.417,0.69a16.994,16.994,0,0,1,2.328,4.81,3.243,3.243,0,0,1,.17,1.4,3.187,3.187,0,0,1-.443,1.33,3.052,3.052,0,0,1-1.2.87,3.658,3.658,0,0,1-1.605.21,4.764,4.764,0,0,1-1-.11,2.818,2.818,0,0,1-1.316-.84,3.192,3.192,0,0,1-.474-1.28A3.244,3.244,0,0,1,257.346,9138.09Z" transform="translate(-161 -9071)"/>
  <path id="Vector-4" data-name="Vector" class="cls-3" d="M217.576,9144.52a6.759,6.759,0,0,0,2.9-.24,6.641,6.641,0,0,0,2.514-1.45,2.781,2.781,0,0,0,.338-0.39,5.906,5.906,0,0,0,.786-5.29,19.865,19.865,0,0,0-2.665-5.61c-0.449-.72-0.947-1.6-1.493-2.5a1.356,1.356,0,0,0-.433-0.47,0.838,0.838,0,0,0-.241-0.17,1.491,1.491,0,0,0-.538-0.2,1.564,1.564,0,0,0-.57.04,1.405,1.405,0,0,0-.512.25,1.442,1.442,0,0,0-.371.44c-0.546.94-1.108,1.78-1.605,2.6a17.886,17.886,0,0,0-2.954,5.94,5.849,5.849,0,0,0,.979,5.17,5.136,5.136,0,0,0,1.991,1.44,6.522,6.522,0,0,0,1.3.35Zm-2.055-6.43a15.007,15.007,0,0,1,2.537-4.97l0.481-.74,0.417,0.69a16.994,16.994,0,0,1,2.328,4.81,3.243,3.243,0,0,1,.17,1.4,3.172,3.172,0,0,1-.442,1.33,2.921,2.921,0,0,1-1.205.87,3.72,3.72,0,0,1-1.685.21,4.537,4.537,0,0,1-.9-0.14,2.961,2.961,0,0,1-1.333-.84A3.22,3.22,0,0,1,215.521,9138.09Z" transform="translate(-161 -9071)"/>
  <path id="Vector-5" data-name="Vector" class="cls-3" d="M272.418,9114.17a2.927,2.927,0,0,1,.482-1.62,2.877,2.877,0,0,1,1.3-1.07,2.848,2.848,0,0,1,1.68-.18,2.959,2.959,0,0,1,1.492.8,2.9,2.9,0,0,1-2.049,4.96A2.9,2.9,0,0,1,272.418,9114.17Z" transform="translate(-161 -9071)"/>
  <path id="Vector-6" data-name="Vector" class="cls-3" d="M264.074,9114.17a2.905,2.905,0,0,1,1.784-2.67,2.888,2.888,0,0,1,1.669-.16,2.834,2.834,0,0,1,1.48.79,2.9,2.9,0,0,1-.438,4.45,2.944,2.944,0,0,1-1.605.48A2.878,2.878,0,0,1,264.074,9114.17Z" transform="translate(-161 -9071)"/>
  <path id="Vector-7" data-name="Vector" class="cls-3" d="M255.064,9115.75c0,0.72-1.043,1.31-2.327,1.31H204.044c-1.284,0-2.327-.59-2.327-1.31s1.043-1.3,2.327-1.3h48.693C254.053,9114.45,255.064,9115.04,255.064,9115.75Z" transform="translate(-161 -9071)"/>
  <path id="Vector-8" data-name="Vector" class="cls-3" d="M195.389,9182.13H284.3v2.36H195.389v-2.36Z" transform="translate(-161 -9071)"/>
  <path id="Vector-9" data-name="Vector" class="cls-3" d="M227.305,9183.8a17.954,17.954,0,1,1,12.676-5.26A17.933,17.933,0,0,1,227.305,9183.8Zm0-33.51a15.591,15.591,0,1,0,10.966,4.59A15.545,15.545,0,0,0,227.305,9150.29Z" transform="translate(-161 -9071)"/>
  <path id="Vector-10" data-name="Vector" class="cls-3" d="M227.307,9178.29a12.435,12.435,0,1,1,8.782-3.64A12.467,12.467,0,0,1,227.307,9178.29Zm0-23.68a11.236,11.236,0,1,0,7.946,3.29A11.2,11.2,0,0,0,227.307,9154.61Z" transform="translate(-161 -9071)"/>
  <path id="Vector-11" data-name="Vector" class="cls-3" d="M195.759,9121.17h88.908v2.36H195.759v-2.36Z" transform="translate(-161 -9071)"/>
  <path id="Vector-12" data-name="Vector" class="cls-3" d="M258.179,9171.34c-7.144,0-9.055-4.96-9.055-7.9,0-2.21.161-11.44,0.161-11.44v-1.16l17.916,0.11v13.1C267.233,9166.14,265.612,9171.34,258.179,9171.34Zm-6.551-18.12c0,2.55-.144,8.51-0.144,10.22,0,0.92.321,5.54,6.695,5.54s6.694-4.81,6.694-4.81V9153.3Z" transform="translate(-161 -9071)"/>
  <path id="Vector-13" data-name="Vector" class="cls-3" d="M251.868,9181.09H264.6v2.36H251.868v-2.36Z" transform="translate(-161 -9071)"/>
  <path id="Vector-14" data-name="Vector" class="cls-3" d="M257.059,9170.17h2.359v11.94h-2.359v-11.94Z" transform="translate(-161 -9071)"/>
  <path id="Vector-15" data-name="Vector" class="cls-3" d="M204.512,9194.68a9.86,9.86,0,0,1-9.112-6.11,9.824,9.824,0,0,1-.745-3.77v-70.64a9.894,9.894,0,0,1,9.873-9.88h70.639a9.894,9.894,0,0,1,9.873,9.88v70.64a9.862,9.862,0,0,1-9.873,9.85Zm0-88.29a7.8,7.8,0,0,0-7.786,7.8v70.64a7.784,7.784,0,0,0,7.786,7.78h70.639a7.687,7.687,0,0,0,2.992-.59,7.778,7.778,0,0,0,4.81-7.22v-70.64a7.819,7.819,0,0,0-7.786-7.81Z" transform="translate(-161 -9071)"/>
</svg>
